<?xml version="1.0" encoding="UTF-8"?>
<svg id="Graphic" xmlns="http://www.w3.org/2000/svg" version="1.1" viewBox="0 0 347.2 600.9">
  <!-- Generator: Adobe Illustrator 29.1.0, SVG Export Plug-In . SVG Version: 2.1.0 Build 142)  -->
  <defs>
    <style>
      .st0 {
        fill: #222c33;
        opacity: .2;
      }

      .st1 {
        fill: #3d1613;
      }

      .st2 {
        fill: #3c5218;
      }

      .st3 {
        fill: #9d0000;
      }

      .st4 {
        fill: #f1cc30;
      }

      .st5 {
        fill: #5d7e1f;
      }

      .st6 {
        fill: #773015;
      }

      .st7 {
        fill: #2949be;
      }

      .st8 {
        fill: #fff;
      }

      .st9 {
        fill: #da0000;
      }

      .st10 {
        fill: #502515;
      }

      .st11 {
        fill: #eaad29;
      }

      .st12 {
        fill: #487ffa;
      }
    </style>
  </defs>
  <g id="_x31_">
    <ellipse class="st0" cx="185" cy="554.3" rx="67.7" ry="23.6"/>
    <g>
      <g>
        <path class="st6" d="M237.6,553.7c-6.6,9-23.3,13.1-52.6,13.1s-45.9-4.2-52.6-13.1c-.7-.9-1.4-2-1.9-3.4-1.2-2.9-1.7-6.7-.3-11.5l17.5-68.3c.6-2.4,2.8-3.9,5.2-3.8l26.8,2.1,5.2.4,32-2.5c2.4-.2,4.6,1.4,5.2,3.8l17.5,68.3c2.1,7,0,12-2.2,14.9Z"/>
        <path class="st10" d="M237.6,553.7c-6.6,9-23.3,13.1-52.6,13.1s-45.9-4.2-52.6-13.1c-.7-.9-1.4-2-1.9-3.4,2.8-1.1,6.1-2,10-2.6,38.2-5.7,37.8-69,37.8-69,0-3.6.5-6.9,1.5-9.9l5.2.4,32-2.5c2.4-.2,4.6,1.4,5.2,3.8l17.5,68.3c2.1,7,0,12-2.2,14.9Z"/>
        <path class="st1" d="M239.7,538.8l-17.5-68.3c-.6-2.4-2.8-3.9-5.2-3.8l-32,2.5-32-2.5c-2.4-.2-4.6,1.4-5.2,3.8l-17.5,68.3c-2.1,7,0,12,2.2,14.9,6.6,9,23.3,13.1,52.6,13.1s45.9-4.2,52.6-13.1c2.2-2.9,4.3-7.9,2.2-14.9ZM229.5,547.7c-2.5,3.4-11.6,9.1-44.5,9.1s-42-5.7-44.5-9.1c-.8-1.1-1.6-2.8-.6-6.1,0,0,0-.1,0-.2l16.5-64.4,28.2,2.2c.3,0,.5,0,.8,0l28.2-2.2,16.5,64.4c0,0,0,.2,0,.2,1,3.3.2,5-.6,6.1Z"/>
      </g>
      <g>
        <path class="st5" d="M336.9,411.5c-.2.7-6.2,18-28.3,35-19.9,15.4-57.5,33.7-123.6,33.7s-78.7-9-100.8-19.7c-9.4-4.5-16.9-9.4-22.8-14-22.1-17-28.1-34.3-28.3-35-.6-1.7-.2-3.5.9-4.8,96.7-112.8,145.9-224,146.3-225.1.6-1.3,1.6-2.2,2.9-2.7.5-.2,1.1-.3,1.7-.3,2,0,3.8,1.2,4.6,3,.5,1.1,49.7,112.2,146.3,225.1,1.1,1.3,1.5,3.2.9,4.8Z"/>
        <path class="st2" d="M336.9,411.5c-.2.7-6.2,18-28.3,35-19.9,15.4-57.5,33.7-123.6,33.7s-78.7-9-100.8-19.7l-11.1-17.8c162.2-44.7,111.9-247.2,111.9-247.2-1.1-6.3-1.7-11.8-1.7-16.5.5-.2,1.1-.3,1.7-.3,2,0,3.8,1.2,4.6,3,.5,1.1,49.7,112.2,146.3,225.1,1.1,1.3,1.5,3.2.9,4.8Z"/>
        <path class="st1" d="M335.9,406.7c-96.7-112.8-145.9-224-146.3-225.1-.8-1.8-2.6-3-4.6-3s-3.8,1.2-4.6,3c-.5,1.1-49.7,112.2-146.3,225.1-1.1,1.3-1.5,3.2-.9,4.8.2.7,6.2,18,28.3,35,19.9,15.4,57.5,33.7,123.6,33.7s103.7-18.3,123.6-33.7c22.1-17,28.1-34.3,28.3-35,.6-1.7.2-3.5-.9-4.8ZM301.8,439.1c-18.7,14.2-54.1,31.1-116.8,31.1s-98.2-16.9-116.8-31.1c-15.3-11.6-22.1-23.3-24.5-28.3,79.8-93.7,127.1-185.8,141.3-215.4,14.2,29.6,61.6,121.7,141.3,215.4-2.4,5-9.2,16.7-24.5,28.3Z"/>
      </g>
      <g>
        <path class="st5" d="M311,323.2c-.2,1.4-1,2.7-2.1,3.5-2.4,1.6-59.9,40.3-123.9,40.3s-73.4-13.5-96.7-24.9c-16-7.8-26.2-14.7-27.2-15.3-1.2-.8-2-2.1-2.1-3.5-.2-1.4.2-2.8,1.1-3.9,86-100.6,119.7-206.2,120.1-207.2.7-2.1,2.6-3.5,4.8-3.5,2.2,0,4.1,1.4,4.8,3.5.3,1,34.2,106.7,120.1,207.2.9,1.1,1.3,2.5,1.2,3.9Z"/>
        <path class="st2" d="M311,323.2c-.2,1.4-1,2.7-2.1,3.5-2.4,1.6-59.9,40.3-123.9,40.3s-73.4-13.5-96.7-24.9c.5-3.4,1-5.4,1-5.4,151.2-40.5,95.6-228,95.6-228,2.2,0,4.1,1.4,4.8,3.5.3,1,34.2,106.7,120.1,207.2.9,1.1,1.3,2.5,1.2,3.9Z"/>
        <path class="st1" d="M309.8,319.3c-85.9-100.5-119.7-206.2-120.1-207.2-.7-2.1-2.6-3.5-4.8-3.5-2.2,0-4.1,1.4-4.8,3.5-.3,1-34.1,106.6-120.1,207.2-.9,1.1-1.3,2.5-1.1,3.9.2,1.4,1,2.7,2.1,3.5,2.4,1.6,59.9,40.3,123.9,40.3s121.4-38.6,123.9-40.3c1.2-.8,2-2.1,2.1-3.5.2-1.4-.2-2.8-1.2-3.9ZM185,357c-50.7,0-98.6-26.5-113.5-35.6,66.8-79.6,101.6-161.5,113.5-192.9,11.9,31.5,46.8,113.3,113.5,192.9-14.9,9-62.8,35.6-113.5,35.6Z"/>
      </g>
      <g>
        <path class="st5" d="M287.6,213.7c0,1.4-.5,2.8-1.5,3.7-1.5,1.5-36.6,36.2-101.1,36.2s-39.8-3.9-54.6-9.1c-29.6-10.4-45.6-26.2-46.5-27.2-1-1-1.5-2.3-1.4-3.7,0-1.4.7-2.7,1.8-3.6,72.2-61.2,95.8-127.3,96.1-127.9.6-1.7,2.1-3,3.8-3.3.3,0,.6,0,.9,0,2.1,0,4,1.3,4.7,3.3.2.7,24,66.8,96.1,127.9,1.1.9,1.7,2.2,1.8,3.6Z"/>
        <path class="st2" d="M287.6,213.7c0,1.4-.5,2.8-1.5,3.7-1.5,1.5-36.6,36.2-101.1,36.2s-39.8-3.9-54.6-9.1c-2.9-6.3-.5-12-.5-12,69.4-28.6,55.1-143.1,55.1-143.1-.7-4.1-1-7.6-.9-10.7.3,0,.6,0,.9,0,2.1,0,4,1.3,4.7,3.3.2.7,24,66.8,96.1,127.9,1.1.9,1.7,2.2,1.8,3.6Z"/>
        <path class="st1" d="M285.8,210.1c-72.1-61.1-95.8-127.3-96.1-127.9-.7-2-2.6-3.3-4.7-3.3s-4,1.3-4.7,3.3c-.2.7-23.9,66.7-96.1,127.9-1.1.9-1.7,2.2-1.8,3.6,0,1.4.5,2.8,1.4,3.7,1.5,1.5,36.6,36.2,101.1,36.2s99.7-34.8,101.1-36.2c1-1,1.5-2.3,1.5-3.7,0-1.4-.7-2.7-1.8-3.6ZM185,243.7c-48.2,0-79.3-21.2-89.9-29.7,54-47.2,80.2-95.6,89.9-117.1,9.8,21.5,35.9,69.9,89.9,117.1-10.7,8.6-41.8,29.7-89.9,29.7Z"/>
      </g>
      <path class="st8" d="M117.4,294.1c-3.4,5.3-8.7,8-11.8,6s-2.9-7.9.6-13.3c3.4-5.3,8.7-8,11.8-6s2.9,7.9-.6,13.3ZM102.3,302.2c-2-1.5-5.3-.6-7.3,2s-2,6,0,7.6,5.3.6,7.3-2c2-2.6,2-6,0-7.6ZM160.5,157c-3.1-2.1-8.4.5-12,5.7-3.6,5.2-4,11.2-1,13.3s8.4-.5,12-5.7,4-11.2,1-13.3ZM144.2,177.9c-2-1.6-5.3-.8-7.4,1.8-2.1,2.6-2.2,6-.2,7.6,2,1.6,5.3.8,7.4-1.8,2.1-2.6,2.2-6,.2-7.6ZM103.6,360.1c-3.1-2-8.4.7-11.8,6-3.4,5.3-3.7,11.3-.6,13.3s8.4-.7,11.8-6c3.4-5.3,3.7-11.3.6-13.3ZM87.9,381.6c-2-1.5-5.3-.6-7.3,2-2,2.6-2,6,0,7.6s5.3.6,7.3-2,2-6,0-7.6Z"/>
    </g>
    <path class="st1" d="M313.2,380.7c-.5.9-11.8,21.6-49.4,39.2-35.5,16.7-81.4,25.1-136.8,25.1-21.5,0-44.5-1.3-68.9-3.8-2.7-.3-4.7-2.7-4.5-5.5.3-2.7,2.7-4.7,5.5-4.5,105.4,11,166.5-4.8,199.3-19.9,22.1-10.2,34.5-21.4,40.7-28.5-76.6-4.5-126.1-32.6-154.5-56-32.2-26.5-44.8-52.2-45.3-53.3-.7-1.4-.7-3.1,0-4.5s2.1-2.4,3.7-2.6c52.7-7.4,86.5-32.8,105.5-52.8,14-14.7,22.2-28.5,26.1-36-32.7-7.9-71.2-46.8-72.9-48.6-1.9-2-1.9-5.1,0-7.1,2-1.9,5.1-1.9,7.1,0,.4.4,43.4,43.8,73.6,46.8,0,0,.1,0,.2,0,.2,0,.3,0,.5.1.2,0,.3,0,.5.1,0,0,.1,0,.2,0,0,0,.2,0,.2.1.2,0,.3.2.5.3.1,0,.3.2.4.3.1,0,.3.2.4.3.1.1.2.2.3.3.1.1.2.2.3.4,0,.1.2.3.3.4,0,.1.2.3.2.4,0,.1.1.3.2.4,0,.2.1.3.1.5,0,.2,0,.3,0,.5,0,.2,0,.3,0,.5,0,.2,0,.3,0,.5,0,0,0,.2,0,.3,0,0,0,.1,0,.2,0,.1,0,.3,0,.4,0,.2,0,.4-.2.5,0,0,0,.1,0,.2-.4.9-9,21.8-30.8,44.8-19.2,20.2-52.7,45.6-104.2,54.7,5.5,8.9,18,26.5,39.7,44.3,28.3,23.2,78.7,51.3,157.6,53.8,1.7,0,3.3,1,4.2,2.5.9,1.5.9,3.3,0,4.9Z"/>
    <g>
      <g>
        <path class="st4" d="M218.5,60.6l-3.4,3.1-10.6,9.7,2.3,11.1,1.5,7.5c.4,1.8-.4,3.6-1.8,4.6-.8.6-1.8.9-2.7.9s-1.6-.2-2.3-.6l-16.5-9.3-16.5,9.3c-1.6.9-3.5.8-5-.3-1.5-1.1-2.2-2.9-1.8-4.6l3.8-18.6-14-12.8c-1.3-1.2-1.8-3.1-1.3-4.8.6-1.7,2.1-2.9,3.9-3.2l18.8-2.2,7.9-17.2c.7-1.6,2.4-2.7,4.2-2.7s3.4,1.1,4.2,2.7l3.3,7.2h0l4.6,10.1,16.3,1.9,2.5.3c1.8.2,3.3,1.4,3.9,3.2.6,1.7,0,3.6-1.3,4.8Z"/>
        <path class="st11" d="M217.7,63.6l-11.5,10.6,2.4,12.1c-1.2,1.6-2.1,2.7-2.1,2.7l-28.2-1.9-6.6-1.4,13.3-19.6v-21.3c-1.6-6.5,2.4-7.6,8.1-6.3h0l5,10.9,17.7,2c2.5,3.8,2.5,8.2,1.9,12.3Z"/>
        <path class="st1" d="M222.7,55.1c-.6-1.9-2.2-3.2-4.2-3.4l-20.4-2.3-8.5-18.7c-.8-1.8-2.6-2.9-4.5-2.9s-3.7,1.2-4.5,2.9l-8.6,18.7-20.4,2.3c-1.9.2-3.6,1.6-4.2,3.4-.6,1.9,0,3.9,1.4,5.2l15.1,13.9-4.1,20.2c-.4,1.9.4,3.9,2,5,1.6,1.2,3.7,1.3,5.4.3l17.9-10.1,17.9,10.1c.8.4,1.6.7,2.5.7s2.1-.3,2.9-1c1.6-1.2,2.3-3.1,2-5l-4.1-20.2,15.1-13.9c1.4-1.3,2-3.4,1.4-5.2ZM197.3,68.7c-1.3,1.2-1.9,3-1.5,4.7l2.5,12.2-10.8-6.1c-1.5-.9-3.4-.9-4.9,0l-10.8,6.1,2.5-12.2c.3-1.7-.2-3.5-1.5-4.7l-9.2-8.4,12.4-1.4c1.7-.2,3.2-1.3,4-2.9l5.2-11.3,5.2,11.3c.7,1.6,2.2,2.7,4,2.9l12.4,1.4-9.2,8.4Z"/>
      </g>
      <g>
        <path class="st9" d="M185,125.7c0,10.8-8.8,19.6-19.6,19.6s-11.3-2.7-14.9-6.9c-3-3.4-4.7-7.9-4.7-12.8,0-10.8,8.8-19.6,19.6-19.6s6.5.8,9.3,2.3c6.1,3.3,10.3,9.8,10.3,17.3Z"/>
        <path class="st3" d="M185,125.7c0,10.8-8.8,19.6-19.6,19.6s-10-7.9-13.6-12.1c4.8,2.1,25.4,2.2,22.9-24.7,6.1,3.3,10.3,9.8,10.3,17.3Z"/>
        <path class="st1" d="M165.4,104.3c-11.8,0-21.4,9.6-21.4,21.4s9.6,21.4,21.4,21.4,21.4-9.6,21.4-21.4-9.6-21.4-21.4-21.4ZM165.4,137.1c-6.3,0-11.4-5.1-11.4-11.4s5.1-11.4,11.4-11.4,11.4,5.1,11.4,11.4-5.1,11.4-11.4,11.4Z"/>
        <path class="st8" d="M159.7,121.1c-1.2,1.3-2.6,1.8-3.2,1.3s0-2,1.2-3.2,2.6-1.8,3.2-1.3,0,2-1.2,3.2ZM156.9,124.2c-.6,0-1.1.8-1,1.7s.6,1.5,1.2,1.5,1.1-.8,1-1.7-.6-1.5-1.2-1.5Z"/>
      </g>
      <g>
        <path class="st12" d="M208.5,237.8c0,10.8-8.8,19.6-19.6,19.6s-11.3-2.7-14.9-6.9c-3-3.4-4.7-7.9-4.7-12.8,0-10.8,8.8-19.6,19.6-19.6s6.5.8,9.3,2.3c6.1,3.3,10.3,9.8,10.3,17.3Z"/>
        <path class="st7" d="M208.5,237.8c0,10.8-8.8,19.6-19.6,19.6s-10-7.9-13.6-12.1c4.8,2.1,25.4,2.2,22.9-24.7,6.1,3.3,10.3,9.8,10.3,17.3Z"/>
        <path class="st1" d="M188.9,216.4c-11.8,0-21.4,9.6-21.4,21.4s9.6,21.4,21.4,21.4,21.4-9.6,21.4-21.4-9.6-21.4-21.4-21.4ZM188.9,249.2c-6.3,0-11.4-5.1-11.4-11.4s5.1-11.4,11.4-11.4,11.4,5.1,11.4,11.4-5.1,11.4-11.4,11.4Z"/>
        <path class="st8" d="M183.2,233.2c-1.2,1.3-2.6,1.8-3.2,1.3s0-2,1.2-3.2,2.6-1.8,3.2-1.3,0,2-1.2,3.2ZM180.4,236.3c-.6,0-1.1.8-1,1.7s.6,1.5,1.2,1.5,1.1-.8,1-1.7c0-.9-.6-1.5-1.2-1.5Z"/>
      </g>
      <g>
        <path class="st9" d="M123.4,271.5c0,10.8-8.8,19.6-19.6,19.6s-11.3-2.7-14.9-6.9c-3-3.4-4.7-7.9-4.7-12.8,0-10.8,8.8-19.6,19.6-19.6s6.5.8,9.3,2.3c6.1,3.3,10.3,9.8,10.3,17.3Z"/>
        <path class="st3" d="M123.4,271.5c0,10.8-8.8,19.6-19.6,19.6s-10-7.9-13.6-12.1c4.8,2.1,25.4,2.2,22.9-24.7,6.1,3.3,10.3,9.8,10.3,17.3Z"/>
        <path class="st1" d="M103.8,250.1c-11.8,0-21.4,9.6-21.4,21.4s9.6,21.4,21.4,21.4,21.4-9.6,21.4-21.4-9.6-21.4-21.4-21.4ZM103.8,282.9c-6.3,0-11.4-5.1-11.4-11.4s5.1-11.4,11.4-11.4,11.4,5.1,11.4,11.4-5.1,11.4-11.4,11.4Z"/>
        <path class="st8" d="M98.1,267c-1.2,1.3-2.6,1.8-3.2,1.3s0-2,1.2-3.2c1.2-1.3,2.6-1.8,3.2-1.3s0,2-1.2,3.2ZM95.3,270c-.6,0-1.1.8-1,1.7s.6,1.5,1.2,1.5,1.1-.8,1-1.7c0-.9-.6-1.5-1.2-1.5Z"/>
      </g>
      <g>
        <path class="st4" d="M198.6,344.1c0,10.8-8.8,19.6-19.6,19.6s-11.3-2.7-14.9-6.9c-3-3.4-4.7-7.9-4.7-12.8,0-10.8,8.8-19.6,19.6-19.6s6.5.8,9.3,2.3c6.1,3.3,10.3,9.8,10.3,17.3Z"/>
        <path class="st11" d="M198.6,344.1c0,10.8-8.8,19.6-19.6,19.6s-10-7.9-13.6-12.1c4.8,2.1,25.4,2.2,22.9-24.7,6.1,3.3,10.3,9.8,10.3,17.3Z"/>
        <path class="st1" d="M179,322.7c-11.8,0-21.4,9.6-21.4,21.4s9.6,21.4,21.4,21.4,21.4-9.6,21.4-21.4-9.6-21.4-21.4-21.4ZM179,355.5c-6.3,0-11.4-5.1-11.4-11.4s5.1-11.4,11.4-11.4,11.4,5.1,11.4,11.4-5.1,11.4-11.4,11.4Z"/>
        <path class="st8" d="M173.3,339.6c-1.2,1.3-2.6,1.8-3.2,1.3s0-2,1.2-3.2,2.6-1.8,3.2-1.3,0,2-1.2,3.2ZM170.5,342.6c-.6,0-1.1.8-1,1.7s.6,1.5,1.2,1.5,1.1-.8,1-1.7-.6-1.5-1.2-1.5Z"/>
      </g>
      <g>
        <path class="st12" d="M328.4,378.4c0,10.8-8.8,19.6-19.6,19.6s-11.3-2.7-14.9-6.9c-3-3.4-4.7-7.9-4.7-12.8,0-10.8,8.8-19.6,19.6-19.6s6.5.8,9.3,2.3c6.1,3.3,10.3,9.8,10.3,17.3Z"/>
        <path class="st7" d="M328.4,378.4c0,10.8-8.8,19.6-19.6,19.6s-10-7.9-13.6-12.1c4.8,2.1,25.4,2.2,22.9-24.7,6.1,3.3,10.3,9.8,10.3,17.3Z"/>
        <path class="st1" d="M308.8,357c-11.8,0-21.4,9.6-21.4,21.4s9.6,21.4,21.4,21.4,21.4-9.6,21.4-21.4-9.6-21.4-21.4-21.4ZM308.8,389.8c-6.3,0-11.4-5.1-11.4-11.4s5.1-11.4,11.4-11.4,11.4,5.1,11.4,11.4-5.1,11.4-11.4,11.4Z"/>
        <path class="st8" d="M303.1,373.8c-1.2,1.3-2.6,1.8-3.2,1.3s0-2,1.2-3.2,2.6-1.8,3.2-1.3,0,2-1.2,3.2ZM300.3,376.9c-.6,0-1.1.8-1,1.7s.6,1.5,1.2,1.5,1.1-.8,1-1.7-.6-1.5-1.2-1.5Z"/>
      </g>
      <g>
        <path class="st9" d="M217.5,433.8c0,10.8-8.8,19.6-19.6,19.6s-11.3-2.7-14.9-6.9c-3-3.4-4.7-7.9-4.7-12.8,0-10.8,8.8-19.6,19.6-19.6s6.5.8,9.3,2.3c6.1,3.3,10.3,9.8,10.3,17.3Z"/>
        <path class="st3" d="M217.5,433.8c0,10.8-8.8,19.6-19.6,19.6s-10-7.9-13.6-12.1c4.8,2.1,25.4,2.2,22.9-24.7,6.1,3.3,10.3,9.8,10.3,17.3Z"/>
        <path class="st1" d="M197.9,412.4c-11.8,0-21.4,9.6-21.4,21.4s9.6,21.4,21.4,21.4,21.4-9.6,21.4-21.4-9.6-21.4-21.4-21.4ZM197.9,445.2c-6.3,0-11.4-5.1-11.4-11.4s5.1-11.4,11.4-11.4,11.4,5.1,11.4,11.4-5.1,11.4-11.4,11.4Z"/>
        <path class="st8" d="M192.2,429.2c-1.2,1.3-2.6,1.8-3.2,1.3s0-2,1.2-3.2c1.2-1.3,2.6-1.8,3.2-1.3s0,2-1.2,3.2ZM189.4,432.3c-.6,0-1.1.8-1,1.7s.6,1.5,1.2,1.5,1.1-.8,1-1.7c0-.9-.6-1.5-1.2-1.5Z"/>
      </g>
      <g>
        <path class="st4" d="M78.3,436.3c0,10.8-8.8,19.6-19.6,19.6s-11.3-2.7-14.9-6.9c-3-3.4-4.7-7.9-4.7-12.8,0-10.8,8.8-19.6,19.6-19.6s6.5.8,9.3,2.3c6.1,3.3,10.3,9.8,10.3,17.3Z"/>
        <path class="st11" d="M78.3,436.3c0,10.8-8.8,19.6-19.6,19.6s-10-7.9-13.6-12.1c4.8,2.1,25.4,2.2,22.9-24.7,6.1,3.3,10.3,9.8,10.3,17.3Z"/>
        <path class="st1" d="M58.7,414.9c-11.8,0-21.4,9.6-21.4,21.4s9.6,21.4,21.4,21.4,21.4-9.6,21.4-21.4-9.6-21.4-21.4-21.4ZM58.7,447.7c-6.3,0-11.4-5.1-11.4-11.4s5.1-11.4,11.4-11.4,11.4,5.1,11.4,11.4-5.1,11.4-11.4,11.4Z"/>
        <path class="st8" d="M52.9,431.7c-1.2,1.3-2.6,1.8-3.2,1.3s0-2,1.2-3.2,2.6-1.8,3.2-1.3,0,2-1.2,3.2ZM50.2,434.8c-.6,0-1.1.8-1,1.7s.6,1.5,1.2,1.5,1.1-.8,1-1.7-.6-1.5-1.2-1.5Z"/>
      </g>
      <g>
        <path class="st4" d="M261.7,174c0,10.8-8.8,19.6-19.6,19.6s-11.3-2.7-14.9-6.9c-3-3.4-4.7-7.9-4.7-12.8,0-10.8,8.8-19.6,19.6-19.6s6.5.8,9.3,2.3c6.1,3.3,10.3,9.8,10.3,17.3Z"/>
        <path class="st11" d="M261.7,174c0,10.8-8.8,19.6-19.6,19.6s-10-7.9-13.6-12.1c4.8,2.1,25.4,2.2,22.9-24.7,6.1,3.3,10.3,9.8,10.3,17.3Z"/>
        <path class="st1" d="M242.1,152.6c-11.8,0-21.4,9.6-21.4,21.4s9.6,21.4,21.4,21.4,21.4-9.6,21.4-21.4-9.6-21.4-21.4-21.4ZM242.1,185.4c-6.3,0-11.4-5.1-11.4-11.4s5.1-11.4,11.4-11.4,11.4,5.1,11.4,11.4-5.1,11.4-11.4,11.4Z"/>
        <path class="st8" d="M236.4,169.4c-1.2,1.3-2.6,1.8-3.2,1.3s0-2,1.2-3.2c1.2-1.3,2.6-1.8,3.2-1.3s0,2-1.2,3.2ZM233.6,172.5c-.6,0-1.1.8-1,1.7s.6,1.5,1.2,1.5,1.1-.8,1-1.7c0-.9-.6-1.5-1.2-1.5Z"/>
      </g>
    </g>
  </g>
</svg>